<svg width="22" height="12" viewBox="0 0 22 12" fill="none" xmlns="http://www.w3.org/2000/svg">
<path d="M0.859347 6.85938L19.0591 6.85938L16.0443 9.85963C15.7079 10.1944 15.7066 10.7386 16.0414 11.075C16.3762 11.4114 16.9203 11.4126 17.2567 11.0779L21.7472 6.60913C21.7475 6.60888 21.7477 6.60858 21.7479 6.60832C22.0835 6.27351 22.0845 5.72763 21.748 5.3917C21.7477 5.39144 21.7475 5.39114 21.7472 5.39089L17.2568 0.922143C16.9205 0.587416 16.3763 0.588576 16.0415 0.925064C15.7066 1.26147 15.7079 1.80558 16.0443 2.14039L19.0591 5.14064L0.859347 5.14064C0.384715 5.14064 -2.81029e-05 5.52538 -2.81444e-05 6.00001C-2.81859e-05 6.47464 0.384715 6.85938 0.859347 6.85938Z" fill="white"/>
</svg>
