<svg width="22" height="12" viewBox="0 0 22 12" fill="none" xmlns="http://www.w3.org/2000/svg">
<path d="M21.1407 5.14062L2.94088 5.14062L5.95575 2.14037C6.29215 1.80556 6.29344 1.26145 5.95863 0.925044C5.62381 0.5886 5.07966 0.587354 4.74325 0.922123L0.252844 5.39087C0.252543 5.39112 0.252328 5.39142 0.25207 5.39168C-0.0834729 5.72649 -0.0845472 6.27237 0.251984 6.6083C0.252285 6.60856 0.2525 6.60886 0.252758 6.60911L4.74317 11.0779C5.07953 11.4126 5.62368 11.4114 5.95854 11.0749C6.29335 10.7385 6.29206 10.1944 5.95566 9.85961L2.94088 6.85936L21.1407 6.85937C21.6153 6.85937 22 6.47463 22 5.99999C22 5.52536 21.6153 5.14062 21.1407 5.14062Z" fill="#2D3958"/>
</svg>
