<svg width="144" height="147" viewBox="0 0 144 147" fill="none" xmlns="http://www.w3.org/2000/svg">
<g opacity="0.2" filter="url(#filter0_d_392_1622)">
<circle cx="72" cy="45" r="45" fill="#FF9513"/>
</g>
<g clip-path="url(#clip0_392_1622)">
<path d="M47.4899 70C47.0785 69.7292 46.9535 69.3867 47.0616 68.8789C47.9535 64.6328 48.8233 60.3828 49.6944 56.1328C49.7139 56.0404 49.7191 55.944 49.7347 55.8112C49.4964 55.7735 49.2751 55.7539 49.0603 55.7018C48.4767 55.5656 47.9563 55.2362 47.5836 54.767C47.2109 54.2978 47.0076 53.7164 47.0069 53.1172C47.0025 46.3169 47.003 39.5143 47.0082 32.7097C47.0136 32.0422 47.2802 31.4035 47.7509 30.9303C48.2217 30.4572 48.859 30.1872 49.5264 30.1784C50.1841 30.1789 50.8165 30.4322 51.2927 30.8859C51.7689 31.3396 52.0526 31.959 52.085 32.6159C52.1254 33.362 52.1032 34.112 52.1032 34.8607C52.1032 39.2062 52.1032 43.5512 52.1032 47.8959C52.1032 49.2331 52.8845 50.2552 54.0563 50.3581C54.7946 50.4245 55.5446 50.3711 56.3545 50.3711C56.3545 49.5378 56.3728 48.7136 56.3337 47.8906C56.3337 47.7735 56.0642 47.6302 55.8936 47.5638C54.4613 47.0065 53.5967 45.9714 53.4535 44.4388C53.3063 42.8646 53.9743 41.6263 55.3649 40.8893C55.9259 40.6021 56.546 40.4492 57.1761 40.4427C67.0355 40.4167 76.8944 40.4119 86.753 40.4284C87.6489 40.4136 88.5193 40.7269 89.2004 41.3091C89.8814 41.8914 90.3262 42.7025 90.4509 43.5899C90.7113 45.3386 89.6553 47.0117 87.8975 47.5938C87.6371 47.681 87.5381 47.7813 87.5446 48.0599C87.5642 48.8203 87.5511 49.5821 87.5511 50.3568C88.391 50.3568 89.1892 50.4258 89.9704 50.3386C90.8819 50.2357 91.6084 49.4206 91.7491 48.5039C91.7857 48.2452 91.8027 47.984 91.7998 47.7227C91.7998 44.484 91.7998 41.2457 91.7998 38.0078C91.7998 37.8294 91.7477 37.6029 91.835 37.487C91.9977 37.2591 92.2165 36.9974 92.4639 36.9219C92.805 36.8164 93.0915 37.043 93.2009 37.3972C93.2462 37.57 93.2655 37.7486 93.2582 37.9271C93.2582 41.2309 93.2582 44.5343 93.2582 47.8373C93.2582 50.3008 91.6957 51.8503 89.2347 51.862C88.6879 51.862 88.141 51.862 87.5707 51.862V54.2813C87.7438 54.2917 87.9001 54.3099 88.0563 54.3099C90.006 54.3099 91.9548 54.3099 93.9027 54.3099C95.016 54.3099 95.4379 53.8854 95.4379 52.78C95.4379 46.2053 95.4379 39.6311 95.4379 33.0573C95.4418 32.9271 95.4392 32.7967 95.43 32.6667C95.4074 32.3966 95.287 32.1442 95.0913 31.9567C94.8957 31.7692 94.6383 31.6596 94.3675 31.6485C94.0956 31.6472 93.8332 31.7485 93.6326 31.9322C93.4321 32.1158 93.3081 32.3683 93.2855 32.6393C93.2438 33.2709 93.2647 33.9076 93.2582 34.5417C93.2582 34.8854 93.1735 35.1927 92.8324 35.3529C92.7273 35.4081 92.6097 35.4355 92.491 35.4324C92.3723 35.4292 92.2564 35.3957 92.1544 35.3349C92.0523 35.2742 91.9676 35.1883 91.9083 35.0854C91.8489 34.9825 91.817 34.8662 91.8155 34.7474C91.7727 33.9512 91.7827 33.153 91.8454 32.3581C91.9561 31.2344 92.9313 30.3464 94.1006 30.1953C95.1631 30.0651 96.2686 30.7318 96.7048 31.7787C96.7647 31.9232 96.835 32.0651 96.8988 32.2084V53.5938C96.8389 53.7409 96.7777 53.888 96.7191 54.0365C96.3467 54.9701 95.6605 55.5261 94.6866 55.7292C94.5212 55.7643 94.3506 55.7722 94.1657 55.7956C94.1826 55.9258 94.1852 56.0117 94.2009 56.0886C94.8484 59.2335 95.4964 62.3772 96.1449 65.5195C96.3819 66.6563 96.6501 67.7865 96.904 68.9206V70H93.5902C93.4131 69.7201 93.1918 69.4583 93.0694 69.1563C91.6431 65.7952 90.2269 62.4306 88.8207 59.0625C88.4274 58.1268 88.0342 57.1919 87.641 56.2578L87.5511 56.2748V56.7865C87.5511 60.849 87.5511 64.9128 87.5589 68.9753C87.5589 69.4245 87.4522 69.7669 87.0602 69.9987H82.6774C82.2868 69.763 82.1722 69.4219 82.1813 68.974C82.2061 67.8021 82.1905 66.6367 82.1905 65.4688V62.4245C82.0617 62.5492 81.9636 62.7021 81.904 62.8711C81.0147 64.9922 80.1332 67.1172 79.2282 69.2318C79.1071 69.5143 78.8662 69.7448 78.6813 70H75.8519C75.473 69.6966 75.3754 69.3203 75.4756 68.8412C76.055 66.1068 76.6162 63.3724 77.1813 60.638C77.5225 58.9887 77.861 57.3342 78.197 55.6745C78.1227 55.6263 78.0668 55.5899 78.0173 55.5599C77.9678 55.53 77.8688 55.4935 77.7985 55.4518C76.7946 54.8568 76.3037 53.9766 76.4235 52.8086C76.5394 51.6784 77.1787 50.9245 78.2464 50.5638C78.6028 50.4566 78.9732 50.403 79.3454 50.405C80.2803 50.3841 81.2165 50.3985 82.1514 50.3985V47.7943H61.7556V50.3985C62.7803 50.3985 63.7699 50.3867 64.7595 50.3985C66.0824 50.4193 67.1553 51.2565 67.4431 52.4662C67.7399 53.7136 67.1501 54.9167 65.9353 55.5404C65.8662 55.5755 65.805 55.6159 65.7243 55.6563C65.726 55.7255 65.7317 55.7947 65.7412 55.8633C66.6301 60.1732 67.5229 64.4831 68.4196 68.793C68.5225 69.2852 68.4535 69.6823 68.055 70H65.2295C65.0511 69.7591 64.8207 69.5417 64.7087 69.2735C64.0212 67.6836 63.3597 66.0807 62.6892 64.4831C62.3975 63.7887 62.1045 63.0942 61.8102 62.3998L61.7243 62.418V62.8828C61.7243 64.9115 61.7139 66.9414 61.7321 68.9688C61.7321 69.4167 61.6214 69.7591 61.2373 69.9948H56.8467C56.6839 69.7669 56.3936 69.5456 56.3819 69.3112C56.3298 68.3047 56.3415 67.293 56.3701 66.2852C56.3819 65.8685 56.6839 65.6341 57.0863 65.6341C57.2607 65.6262 57.4315 65.6854 57.5637 65.7994C57.6959 65.9134 57.7795 66.0737 57.7972 66.2474C57.8221 66.4574 57.8286 66.6691 57.8168 66.8802C57.8168 67.4258 57.8168 67.9701 57.8168 68.5039H60.2295V47.7956H57.8168V63.0143C57.8292 63.1929 57.8227 63.3723 57.7972 63.5495C57.7087 63.9466 57.4561 64.1758 57.0342 64.1498C56.6436 64.1237 56.4196 63.8828 56.3636 63.4987C56.3506 63.3528 56.348 63.2062 56.3558 63.0599C56.3558 60.9271 56.3558 58.7947 56.3558 56.6628C56.3558 56.5326 56.3415 56.4024 56.3285 56.1511C56.2113 56.4024 56.1462 56.5313 56.0902 56.6641C54.3541 60.7986 52.618 64.9323 50.8819 69.0651C50.7425 69.3972 50.5056 69.6888 50.3142 69.9987L47.4899 70ZM71.9548 46.2943H85.4964C86.0004 46.2943 86.5043 46.3099 87.0069 46.2774C87.3236 46.2528 87.6311 46.1593 87.9079 46.0034C88.1847 45.8475 88.4241 45.6329 88.6093 45.3748C88.7945 45.1167 88.921 44.8212 88.98 44.5091C89.039 44.1969 89.0291 43.8756 88.9509 43.5677C88.6683 42.4909 87.822 41.8919 86.5694 41.8919H57.3337C57.2035 41.8919 57.0733 41.8919 56.9431 41.8998C56.5973 41.9246 56.2622 42.0303 55.9648 42.2084C55.6674 42.3865 55.4159 42.6319 55.2307 42.9249C55.0455 43.2179 54.9317 43.5504 54.8985 43.8954C54.8653 44.2405 54.9135 44.5885 55.0394 44.9115C55.4001 45.8229 56.18 46.2956 57.335 46.2969C62.2083 46.3004 67.0815 46.2995 71.9548 46.2943ZM56.3402 51.8607C55.7777 51.8607 55.2621 51.8698 54.7464 51.8607C54.3736 51.8675 54.001 51.84 53.6332 51.7787C51.7907 51.3802 50.6462 49.8854 50.6462 47.8646C50.641 42.9844 50.641 38.1051 50.6462 33.2266C50.6525 33.0153 50.6438 32.8038 50.6201 32.5938C50.5837 32.3338 50.4558 32.0954 50.2594 31.9212C50.063 31.747 49.811 31.6484 49.5485 31.6432C49.2778 31.6513 49.0195 31.7581 48.8221 31.9435C48.6247 32.1289 48.5019 32.3801 48.4769 32.6498C48.4677 32.7798 48.4651 32.9101 48.4691 33.0404V52.8125C48.4691 53.8815 48.9001 54.3125 49.9808 54.3151C51.9444 54.3151 53.9083 54.3151 55.8728 54.3151C56.0277 54.3151 56.1813 54.2956 56.3454 54.2839L56.3402 51.8607ZM83.6839 47.7826V68.5H86.0629V47.7826H83.6839ZM95.2725 68.5C95.1006 67.6654 94.9352 66.8568 94.7686 66.0469C94.0889 62.7578 93.4075 59.4688 92.7243 56.1797C92.6931 56.0352 92.5589 55.7982 92.4639 55.7969C91.3519 55.7696 90.2399 55.78 89.0537 55.78C89.1436 56.0156 89.1996 56.1784 89.266 56.3373C90.8771 60.1827 92.4882 64.0274 94.0993 67.8711C94.3962 68.5755 94.3962 68.5755 95.2673 68.5H95.2725ZM54.8754 55.7748C53.7386 55.7748 52.7048 55.7852 51.6722 55.7682C51.3506 55.7682 51.2334 55.8672 51.1683 56.1901C50.5707 59.1654 49.9509 62.1354 49.3441 65.1068L48.6488 68.4831C49.5004 68.6133 49.5004 68.6133 49.7985 67.9024C50.8775 65.3312 51.9574 62.7587 53.0381 60.1849C53.6319 58.7513 54.2308 57.3164 54.8754 55.7748ZM66.8545 68.5C65.9782 64.2474 65.1071 60.0235 64.2373 55.8021H61.7139C61.7139 56.4102 61.736 56.9922 61.7074 57.5729C61.6876 58.1237 61.7959 58.6715 62.0238 59.1732C63.2569 62.069 64.4704 64.974 65.6892 67.8776C65.9886 68.5768 65.9886 68.5781 66.8558 68.5H66.8545ZM77.0524 68.4883C77.904 68.6042 77.9053 68.6042 78.2178 67.8581C79.4183 65 80.5746 62.1224 81.8376 59.2917C82.3584 58.1289 82.0811 56.9779 82.1996 55.7969H79.6683C78.7951 60.0365 77.9235 64.2669 77.0537 68.4883H77.0524ZM61.7399 54.3021C62.8142 54.3021 63.8363 54.3203 64.8649 54.2956C65.1694 54.3005 65.4634 54.1848 65.6829 53.9739C65.9024 53.7629 66.0296 53.4737 66.0368 53.1693C66.072 52.5326 65.6644 51.9479 65.0043 51.9102C63.9274 51.8464 62.8428 51.8932 61.7491 51.8932L61.7399 54.3021ZM82.1722 51.8607C81.6813 51.8607 81.2308 51.8607 80.779 51.8607C80.1631 51.8672 79.542 51.8347 78.9313 51.8985C78.6306 51.9335 78.3542 52.0806 78.1572 52.3105C77.9602 52.5403 77.8571 52.836 77.8684 53.1385C77.8797 53.4411 78.0047 53.7282 78.2184 53.9427C78.432 54.1571 78.7187 54.2831 79.0212 54.2956C79.4899 54.3216 79.9626 54.3086 80.4326 54.3099H82.1722V51.8607Z" fill="#FF9513"/>
<path d="M82.0896 20C82.4503 20.082 82.8149 20.1523 83.173 20.2474C86.7133 21.1836 89.1261 24.5026 88.8943 28.1029C88.789 29.8868 88.0638 31.5779 86.8442 32.884C85.6246 34.1901 83.9871 35.0293 82.2146 35.2565C78.1326 35.7904 74.2576 32.8802 73.7016 28.8633C73.1092 24.5664 75.9282 20.7083 80.1079 20.0885C80.2177 20.066 80.326 20.0365 80.4321 20H82.0896ZM81.2446 21.4648C80.0187 21.4646 78.8202 21.8278 77.8007 22.5086C76.7811 23.1894 75.9864 24.1572 75.5168 25.2896C75.0473 26.4221 74.924 27.6683 75.1626 28.8708C75.4013 30.0732 75.9911 31.178 76.8575 32.0453C77.7239 32.9126 78.828 33.5035 80.0302 33.7434C81.2324 33.9833 82.4788 33.8614 83.6117 33.393C84.7446 32.9246 85.7133 32.1309 86.3951 31.1121C87.077 30.0933 87.4415 28.8952 87.4425 27.6693C87.4428 26.0248 86.7902 24.4474 85.6279 23.284C84.4657 22.1206 82.8891 21.4662 81.2446 21.4648Z" fill="#FF9513"/>
<path d="M76.3399 27.6823C76.3381 26.7093 76.6251 25.7576 77.1645 24.9479C77.704 24.1381 78.4717 23.5067 79.3703 23.1336C80.2689 22.7605 81.258 22.6624 82.2124 22.8519C83.1668 23.0414 84.0434 23.5098 84.7314 24.198C85.4193 24.8861 85.8875 25.7629 86.0767 26.7173C86.2659 27.6717 86.1677 28.6608 85.7943 29.5593C85.4209 30.4578 84.7893 31.2253 83.9794 31.7646C83.1695 32.3038 82.2178 32.5906 81.2448 32.5885C79.9464 32.5797 78.7038 32.0599 77.7858 31.1416C76.8678 30.2234 76.3484 28.9806 76.3399 27.6823ZM81.2682 24.2057C80.5832 24.2019 79.9125 24.4014 79.341 24.7792C78.7695 25.1569 78.3231 25.6958 78.0582 26.3275C77.7933 26.9593 77.7219 27.6554 77.8531 28.3278C77.9843 29.0001 78.3121 29.6184 78.795 30.1042C79.2779 30.5901 79.8942 30.9216 80.5658 31.0569C81.2373 31.1921 81.9339 31.1249 82.5672 30.8638C83.2005 30.6028 83.7421 30.1596 84.1233 29.5904C84.5044 29.0212 84.7081 28.3517 84.7083 27.6667C84.7063 26.7529 84.3439 25.8767 83.6999 25.2285C83.0558 24.5803 82.182 24.2123 81.2682 24.2044V24.2057Z" fill="#FF9513"/>
<path d="M81.9831 26.9388C82.1387 26.9286 82.2949 26.9286 82.4505 26.9388C82.8594 27.0026 83.0938 27.25 83.0951 27.664C83.0951 28.0547 82.8711 28.332 82.4896 28.3711C82.0383 28.4205 81.5829 28.4205 81.1315 28.3711C80.7539 28.3281 80.5339 28.0534 80.53 27.6575C80.5221 26.9583 80.5156 26.2591 80.53 25.5599C80.5263 25.462 80.5425 25.3643 80.5776 25.2729C80.6127 25.1814 80.666 25.0981 80.7343 25.0278C80.8026 24.9576 80.8845 24.9019 80.9749 24.8642C81.0653 24.8266 81.1625 24.8076 81.2604 24.8086C81.4501 24.8132 81.6307 24.891 81.7644 25.0257C81.8981 25.1604 81.9746 25.3415 81.9779 25.5312C82.0013 25.9817 81.9831 26.4349 81.9831 26.9388Z" fill="#FF9513"/>
</g>
<defs>
<filter id="filter0_d_392_1622" x="0" y="0" width="144" height="147" filterUnits="userSpaceOnUse" color-interpolation-filters="sRGB">
<feFlood flood-opacity="0" result="BackgroundImageFix"/>
<feColorMatrix in="SourceAlpha" type="matrix" values="0 0 0 0 0 0 0 0 0 0 0 0 0 0 0 0 0 0 127 0" result="hardAlpha"/>
<feMorphology radius="8" operator="erode" in="SourceAlpha" result="effect1_dropShadow_392_1622"/>
<feOffset dy="30"/>
<feGaussianBlur stdDeviation="17.5"/>
<feColorMatrix type="matrix" values="0 0 0 0 0.980392 0 0 0 0 0.701961 0 0 0 0 0.247059 0 0 0 0.15 0"/>
<feBlend mode="normal" in2="BackgroundImageFix" result="effect1_dropShadow_392_1622"/>
<feBlend mode="normal" in="SourceGraphic" in2="effect1_dropShadow_392_1622" result="shape"/>
</filter>
<clipPath id="clip0_392_1622">
<rect width="49.9049" height="50" fill="white" transform="translate(47 20)"/>
</clipPath>
</defs>
</svg>
