<svg width="90" height="90" viewBox="0 0 90 90" fill="none" xmlns="http://www.w3.org/2000/svg">
<circle opacity="0.2" cx="45" cy="45" r="45" fill="#4F77FF"/>
<g clip-path="url(#clip0_392_1631)">
<path d="M65.6643 70H48.2948C47.9423 69.7396 47.8474 69.3763 47.8487 68.9427C47.8589 66.013 47.8487 63.0833 47.8564 60.1549C47.8492 59.9764 47.8682 59.7978 47.9128 59.625C47.9621 59.4799 48.0561 59.3548 48.1809 59.2683C48.3058 59.1817 48.4547 59.1384 48.6057 59.1447C48.7568 59.151 48.9017 59.2066 49.0192 59.3032C49.1366 59.3998 49.2203 59.5323 49.2577 59.681C49.2898 59.8736 49.3015 60.0692 49.2923 60.2643C49.2923 62.819 49.2923 65.3737 49.2923 67.9284V68.5013H64.6694V50.1003H49.2936V50.6523C49.2936 52.6211 49.2936 54.5898 49.2936 56.5586C49.3012 56.7375 49.2913 56.9168 49.2641 57.0938C49.1923 57.4635 48.9205 57.7057 48.5884 57.6445C48.3384 57.599 48.0897 57.3555 47.9179 57.138C47.8179 57.0078 47.8577 56.763 47.8577 56.569C47.8577 54.6003 47.8577 52.6311 47.8577 50.6615V50.1029H32.069V50.707C32.069 56.793 32.0715 62.8789 32.0767 68.9648C32.0767 69.4102 31.969 69.7565 31.5959 70H27.6612C27.2766 69.7669 27.1715 69.4219 27.1727 68.974C27.1839 62.8385 27.1864 56.7031 27.1804 50.5677V50.0195C27.083 49.9792 27.0394 49.9583 26.9945 49.9427C25.3202 49.3333 24.3625 47.832 24.6278 46.2279C24.9202 44.4557 26.265 43.3464 28.1228 43.3437H30.0766C29.8843 42.4857 30.0292 41.7552 30.6164 41.1445C31.2036 40.5339 31.9638 40.4753 32.7318 40.5143V39.8307C31.7638 39.8307 30.8241 39.849 29.8843 39.8307C27.5651 39.7773 25.5394 38.1315 25.2804 35.7943C25.0689 33.8984 25.183 31.9635 25.1791 30.0443C25.1757 29.9611 25.19 29.8782 25.221 29.8011C25.2521 29.7241 25.2992 29.6548 25.3591 29.5981C25.4191 29.5413 25.4904 29.4983 25.5682 29.4722C25.646 29.4461 25.7285 29.4373 25.8099 29.4466C26.0663 29.4766 26.3304 29.6914 26.5189 29.8932C26.6227 30.0065 26.5971 30.263 26.5971 30.4544C26.5971 31.9518 26.5881 33.4492 26.6048 34.9466C26.6266 36.8451 28.0548 38.3516 29.91 38.3594C35.1716 38.3802 40.4332 38.3802 45.6948 38.3594C46.5639 38.3556 47.3963 38.0031 48.0106 37.3787C48.6249 36.7544 48.9713 35.9087 48.9743 35.026C49.0008 31.625 49.0008 28.224 48.9743 24.8229C48.9693 23.9325 48.6172 23.0803 47.9952 22.4527C47.3732 21.8252 46.5318 21.4733 45.6551 21.474C40.4088 21.4566 35.163 21.4566 29.9177 21.474C29.0414 21.4818 28.2031 21.8385 27.5831 22.4674C26.9631 23.0964 26.6109 23.9473 26.6022 24.8372C26.5881 25.5846 26.6022 26.3333 26.6022 27.082C26.5945 27.6185 26.3215 27.9349 25.8868 27.9388C25.4522 27.9427 25.1714 27.6354 25.1663 27.099C25.1663 26.3333 25.1509 25.5677 25.1663 24.8034C25.2048 23.2253 25.8291 21.9062 27.1022 21.0143C27.7522 20.5586 28.5574 20.3307 29.2933 20H46.2794C46.3038 20.0208 46.3243 20.0534 46.3512 20.0599C49.0795 20.7383 50.4231 22.474 50.4231 25.3385C50.4231 28.431 50.4295 31.5234 50.4231 34.6146C50.4321 35.1346 50.38 35.6539 50.2679 36.1615C50.0152 37.1951 49.4336 38.1151 48.6135 38.7788C47.7934 39.4425 46.7805 39.8127 45.732 39.832C44.7781 39.8542 43.823 39.832 42.8653 39.832V40.5286C43.6704 40.4661 44.4038 40.5534 44.982 41.1549C45.5602 41.7565 45.7089 42.4961 45.5281 43.3112H46.9871C46.9871 42.4141 46.9782 41.5482 47.5346 40.8099C47.7915 40.4551 48.1252 40.1649 48.51 39.9618C48.8947 39.7586 49.3203 39.6478 49.7538 39.638C50.6218 39.5938 51.4449 39.7044 52.1449 40.2982C53.0757 41.0872 53.2206 42.1615 53.1539 43.306H54.918C54.7065 41.2448 54.5013 39.2227 54.2936 37.2018C54.2283 36.5755 54.5026 36.2461 55.1231 36.2253C55.4039 36.2161 55.686 36.2253 55.968 36.2253L56.036 36.1068C55.8886 35.9916 55.7474 35.8686 55.6129 35.7383C54.6451 34.6962 54.0139 33.3788 53.8035 31.9624C53.5932 30.546 53.8138 29.0981 54.436 27.8125C54.7642 27.1406 55.0103 27.0312 55.6937 27.2669C56.9733 27.7078 58.1008 28.5138 58.9411 29.5885C59.0147 29.4698 59.0943 29.3551 59.1796 29.2448C59.9791 28.3277 61.0037 27.6421 62.1489 27.2578C62.813 27.0312 63.0566 27.138 63.3758 27.7786C64.0135 29.0752 64.2411 30.5403 64.0274 31.9732C63.8137 33.4062 63.1693 34.7371 62.1822 35.7839C62.0681 35.9049 61.9579 36.0299 61.7848 36.2214C62.1694 36.2214 62.454 36.2109 62.7386 36.2214C63.3117 36.2448 63.5822 36.543 63.5451 37.1328C63.5156 37.5872 63.454 38.0443 63.4079 38.4922C63.2451 40.0898 63.0822 41.6875 62.9143 43.3437C63.8015 43.3437 64.6464 43.3294 65.4887 43.3437C67.1105 43.375 68.4195 44.5586 68.6938 46.224C68.9426 47.7214 68.0426 49.2786 66.6002 49.8437C66.4528 49.901 66.3054 49.9531 66.1425 50.0143V50.612C66.1425 56.7309 66.1451 62.8507 66.1502 68.9714C66.1541 69.4206 66.0477 69.7656 65.6643 70ZM46.6589 44.8086H28.6664C28.3779 44.8086 28.0894 44.7969 27.8022 44.8086C27.5013 44.823 27.2083 44.9115 26.9485 45.0665C26.6887 45.2216 26.47 45.4384 26.3111 45.6985C26.1522 45.9585 26.058 46.2538 26.0366 46.5591C26.0152 46.8643 26.0672 47.1702 26.1881 47.4505C26.5561 48.293 27.2394 48.6094 28.1215 48.6094C40.4806 48.6042 52.8406 48.6042 65.2015 48.6094C65.3298 48.6125 65.4582 48.609 65.5861 48.599C65.8864 48.5723 66.1758 48.472 66.4295 48.3066C66.6831 48.1413 66.8935 47.9158 67.0424 47.6497C67.1913 47.3836 67.2744 47.0847 67.2845 46.7787C67.2946 46.4727 67.2313 46.1689 67.1002 45.8932C66.731 45.1276 66.0951 44.806 65.2682 44.806C59.0672 44.8103 52.8641 44.8112 46.6589 44.8086ZM30.5972 68.5065V50.099H28.6433V68.5104L30.5972 68.5065ZM62.0412 37.7318H55.795C55.9885 39.6159 56.1796 41.4544 56.3693 43.3164H61.4668C61.6578 41.4635 61.8476 39.6107 62.0412 37.7318ZM62.2373 28.8398C59.3245 29.8633 58.0886 33.7383 59.3488 36.0013C62.0553 34.9336 63.463 31.4414 62.2373 28.8398ZM32.4241 41.9805C32.2807 41.971 32.1368 41.9767 31.9946 41.9974C31.6382 42.0742 31.4215 42.3125 31.4343 42.6823C31.4321 42.8479 31.4928 43.008 31.6039 43.1293C31.7149 43.2505 31.8677 43.3236 32.0305 43.3333C32.1742 43.3461 32.3185 43.3492 32.4626 43.3424H43.1537C43.2975 43.3514 43.4417 43.3467 43.5845 43.3281C43.7356 43.3043 43.874 43.2281 43.976 43.1123C44.078 42.9966 44.1374 42.8486 44.144 42.6934C44.1507 42.5382 44.1042 42.3855 44.0125 42.2612C43.9207 42.1369 43.7894 42.0488 43.6409 42.0117C43.4844 41.9801 43.3244 41.97 43.1653 41.9818M55.6296 28.8073C54.509 30.8711 55.5347 34.3802 57.595 35.4779C57.2723 34.0043 57.4163 32.4649 58.0065 31.0794C58.0237 31.0134 58.0269 30.9445 58.0158 30.8771C58.0048 30.8098 57.9797 30.7456 57.9424 30.6888C57.3687 29.8459 56.5647 29.1919 55.6296 28.8073ZM51.6923 43.3164C51.7436 42.5521 51.8205 41.7839 51.0795 41.3385C50.7769 41.15 50.4288 41.0501 50.0737 41.0501C49.7187 41.0501 49.3706 41.15 49.0679 41.3385C48.3205 41.7852 48.4089 42.556 48.4615 43.3164H51.6923ZM41.3691 39.8776H34.2293V40.4779H41.3691V39.8776Z" fill="#4F77FF"/>
<path d="M57.0298 59.9335C58.5798 59.9335 60.1311 59.9335 61.6811 59.9335C62.7363 59.9335 63.2658 60.4804 63.2671 61.5585C63.2671 62.8754 63.2671 64.1926 63.2671 65.5104C63.2671 66.4817 62.6991 67.0729 61.7517 67.0729C58.5892 67.0729 55.4242 67.0729 52.2567 67.0729C51.3464 67.0729 50.763 66.5338 50.7438 65.6119C50.7156 64.1979 50.7156 62.7829 50.7438 61.3671C50.7643 60.4661 51.34 59.944 52.2323 59.9348C53.8323 59.9296 55.4311 59.9335 57.0298 59.9335ZM52.2028 65.5729H61.7952V61.4205H52.2028V65.5729Z" fill="#4F77FF"/>
<path d="M57.0228 51.5391C58.5724 51.5391 60.1228 51.5391 61.6741 51.5391C62.7267 51.5391 63.2665 52.0911 63.2677 53.1602C63.2677 54.4622 63.2677 55.7643 63.2677 57.0664C63.2677 58.1081 62.7203 58.6745 61.7113 58.6758C58.5625 58.6758 55.4138 58.6758 52.265 58.6758C51.3291 58.6758 50.7573 58.1328 50.7419 57.1771C50.7188 55.7943 50.7188 54.4119 50.7419 53.0299C50.7599 52.0742 51.3265 51.5456 52.2804 51.543C53.8573 51.5352 55.4407 51.5391 57.0228 51.5391ZM61.8087 53.0417H52.1996V57.1836H61.8087V53.0417Z" fill="#4F77FF"/>
<path d="M37.7699 36.9062C35.2605 36.9062 32.7506 36.9062 30.2403 36.9062C28.7852 36.9062 28.0352 36.1354 28.0352 34.6471C28.0352 31.4753 28.0352 28.3034 28.0352 25.1315C28.0352 23.7201 28.8147 22.931 30.2044 22.9297C35.2558 22.9297 40.3076 22.9297 45.3598 22.9297C46.77 22.9297 47.5393 23.7109 47.5393 25.168C47.5393 28.3398 47.5393 31.5117 47.5393 34.6836C47.5393 36.1328 46.77 36.8971 45.3469 36.9062C42.8238 36.9089 40.2981 36.9089 37.7699 36.9062ZM37.8071 24.3945H30.2775C29.5993 24.3945 29.4775 24.5247 29.4775 25.2253V34.6484C29.4775 35.3177 29.6057 35.4414 30.2634 35.4414H45.3341C45.9969 35.4414 46.1034 35.3229 46.1034 34.638C46.1034 31.4974 46.1034 28.3563 46.1034 25.2148C46.1034 24.513 45.9854 24.3945 45.2944 24.3945H37.8071Z" fill="#4F77FF"/>
<path d="M58.8684 63.5013C58.8701 64.0019 58.6771 64.4829 58.3313 64.8396C57.9856 65.1964 57.5151 65.4 57.0222 65.4062C56.5248 65.4052 56.0481 65.2035 55.697 64.8455C55.346 64.4875 55.1494 64.0026 55.1504 63.4974C55.1514 62.9921 55.35 62.508 55.7025 62.1515C56.055 61.795 56.5325 61.5953 57.0299 61.5963C57.2739 61.5985 57.515 61.6496 57.7395 61.7466C57.964 61.8435 58.1674 61.9845 58.3382 62.1615C58.509 62.3384 58.6437 62.5479 58.7347 62.7777C58.8257 63.0076 58.8711 63.2535 58.8684 63.5013ZM57.0081 62.8828C56.803 63.1627 56.5684 63.3502 56.5966 63.4791C56.635 63.6549 56.8722 63.7864 57.0248 63.9375C57.153 63.7877 57.3825 63.6458 57.3979 63.4856C57.4132 63.3255 57.2004 63.164 57.0081 62.8828Z" fill="#4F77FF"/>
<path d="M58.8676 55.1133C58.8685 55.3652 58.8199 55.6148 58.7246 55.8474C58.6293 56.08 58.4892 56.2909 58.3126 56.4679C58.136 56.6448 57.9264 56.7841 57.6961 56.8778C57.4658 56.9714 57.2194 57.0173 56.9714 57.013C56.474 57.0051 56 56.7968 55.6537 56.4339C55.3075 56.071 55.1174 55.5833 55.1252 55.0781C55.1331 54.5729 55.3382 54.0915 55.6955 53.7399C56.0527 53.3883 56.5329 53.1952 57.0304 53.2031C57.5233 53.2093 57.9937 53.4139 58.3382 53.7721C58.6826 54.1303 58.8731 54.6126 58.8676 55.1133ZM57.0163 55.7213C57.2047 55.4401 57.4124 55.2656 57.4009 55.1133C57.3894 54.9609 57.156 54.8177 57.0163 54.6706C56.8676 54.8229 56.6317 54.9583 56.597 55.1328C56.5714 55.2643 56.8086 55.4466 57.0163 55.7213Z" fill="#4F77FF"/>
</g>
<defs>
<clipPath id="clip0_392_1631">
<rect width="46.7391" height="50" fill="white" transform="translate(22 20)"/>
</clipPath>
</defs>
</svg>
