<svg width="90" height="90" viewBox="0 0 90 90" fill="none" xmlns="http://www.w3.org/2000/svg">
<circle opacity="0.2" cx="45" cy="45" r="45" fill="#886CFF"/>
<g clip-path="url(#clip0_392_1638)">
<path d="M67.3759 70H22.5413C22.5051 69.9696 22.4648 69.9446 22.4215 69.9258C20.7887 69.4792 19.8277 68.1484 20.0257 66.6211C20.2275 65.0521 21.4996 63.9844 23.1858 63.9701C23.5569 63.9701 23.9267 63.9701 24.329 63.9701C24.3408 63.7812 24.3577 63.6393 24.3577 63.4961C24.3577 52.7409 24.3603 41.9857 24.3655 31.2305C24.3655 30.9245 24.2796 30.7799 23.9853 30.6628C23.3652 30.4257 22.8431 29.9865 22.5034 29.4162C22.1637 28.8459 22.0261 28.1777 22.1129 27.5195C22.3343 25.957 23.5374 24.8867 25.1207 24.8828C28.7587 24.8737 32.3955 24.8555 36.0335 24.8984C36.8069 24.9076 37.3616 24.7995 37.665 24.013C37.7444 23.8047 38.0126 23.5612 38.2171 23.5378C38.3548 23.531 38.4925 23.5521 38.6219 23.6C38.7513 23.6479 38.8696 23.7215 38.9697 23.8164C39.2613 24.1211 39.0803 24.474 38.8837 24.7969C36.997 27.8893 37.4137 31.418 39.971 33.9935C41.517 35.5508 43.0669 37.1042 44.6207 38.6536C44.7301 38.763 44.846 38.8672 44.9723 38.987C46.6884 37.2643 48.372 35.5938 50.0361 33.901C51.8277 32.0781 52.4931 29.8893 52.0699 27.375C51.454 23.7214 47.8251 21.0521 44.1702 21.5234C43.0231 21.6616 41.9227 22.0597 40.9527 22.6875C40.5074 22.9753 40.0738 22.9036 39.8369 22.5417C39.5999 22.1797 39.7066 21.7513 40.1572 21.4701C40.5725 21.2161 40.984 20.9323 41.4371 20.7812C42.3369 20.4792 43.26 20.2604 44.1793 20H45.7418C45.8317 20.0341 45.924 20.0615 46.0178 20.082C48.9345 20.4805 51.1155 21.974 52.5699 24.5286C52.734 24.8164 52.9163 24.8867 53.221 24.8854C57.0856 24.8767 60.9506 24.8767 64.816 24.8854C65.5051 24.8783 66.1754 25.1099 66.713 25.5409C67.2506 25.972 67.6224 26.5759 67.7652 27.25C68.0569 28.7122 67.3421 30.1016 65.958 30.6484C65.6025 30.7891 65.5556 30.9805 65.5569 31.2995C65.5569 42.0069 65.5569 52.714 65.5569 63.4206C65.5569 63.5924 65.5725 63.7643 65.5817 63.9714C66.0387 63.9714 66.4436 63.9635 66.8473 63.9714C67.9645 63.9987 68.8629 64.4492 69.4514 65.4167C69.6507 65.7435 69.7587 66.1263 69.9085 66.4844V67.5586C69.6949 67.9844 69.5178 68.4375 69.2574 68.8307C68.816 69.4935 68.1025 69.7695 67.3759 70ZM25.8473 63.9701H54.5843C54.7946 63.9598 55.0054 63.9721 55.2132 64.0065C55.38 64.0421 55.5287 64.136 55.6324 64.2714C55.7361 64.4068 55.7881 64.5748 55.779 64.7452C55.7699 64.9155 55.7003 65.077 55.5827 65.2006C55.4652 65.3242 55.3073 65.4017 55.1376 65.4193C54.9436 65.4347 54.7488 65.439 54.5543 65.4323L23.4176 65.4427C23.2066 65.4363 22.9955 65.4464 22.7861 65.4727C22.4125 65.5246 22.0715 65.713 21.8286 66.0015C21.5858 66.29 21.4584 66.6582 21.471 67.0352C21.4879 67.4207 21.647 67.7863 21.9174 68.0616C22.1879 68.3368 22.5506 68.5023 22.9358 68.526C23.0804 68.5365 23.2275 68.526 23.3733 68.526H66.5452C66.7076 68.5315 66.8701 68.5284 67.0322 68.5169C67.376 68.4872 67.7003 68.3445 67.9544 68.111C68.2086 67.8776 68.3783 67.5666 68.4371 67.2266C68.495 66.8848 68.433 66.5336 68.2617 66.2322C68.0904 65.9309 67.8203 65.698 67.497 65.5729C67.2057 65.4773 66.8999 65.4333 66.5934 65.4427C63.859 65.4336 61.135 65.4427 58.4072 65.4362C58.2444 65.4362 58.0817 65.4362 57.9202 65.4258C57.747 65.4198 57.5827 65.3473 57.4615 65.2234C57.3403 65.0995 57.2714 64.9337 57.2692 64.7604C57.247 64.5961 57.2875 64.4295 57.3825 64.2937C57.4776 64.1579 57.6202 64.0628 57.7822 64.0273C57.9558 63.9866 58.1339 63.9687 58.3121 63.974C60.0482 63.974 61.7843 63.974 63.5205 63.974H64.0608V30.9453C64.0061 30.925 63.9493 30.9106 63.8915 30.9023C60.497 30.9023 57.1025 30.9023 53.708 30.888C53.3902 30.888 53.3382 31.0677 53.2718 31.293C52.8748 32.6233 52.1566 33.8356 51.1806 34.8229C50.579 35.4401 49.9501 36.0312 49.3681 36.6654C49.1922 36.8609 49.0872 37.1099 49.0699 37.3724C49.0452 39.1289 49.0608 40.888 49.0543 42.6445C49.0543 43.9375 48.2145 44.7826 46.9189 44.7943C45.6233 44.806 44.3147 44.8047 43.0218 44.7943C41.6962 44.7839 40.8655 43.9453 40.8616 42.6211C40.8616 40.8633 40.8707 39.1055 40.8486 37.3477C40.8323 37.1004 40.7338 36.8657 40.5686 36.681C40.0178 36.0833 39.4293 35.5208 38.8551 34.9453C37.8366 33.9541 37.0862 32.7208 36.6741 31.3607C36.5686 31.0039 36.4137 30.8841 36.04 30.8854C32.8069 30.9023 29.5751 30.8945 26.3434 30.8958C26.1858 30.8958 26.0283 30.9141 25.8473 30.9258V63.9701ZM53.7236 29.4062C53.8225 29.4128 53.9501 29.4284 54.0764 29.4284C57.5816 29.4284 61.0864 29.4284 64.5908 29.4284C64.7692 29.4304 64.9475 29.416 65.1233 29.3854C65.398 29.3425 65.6545 29.2214 65.8623 29.0367C66.0701 28.8521 66.2203 28.6115 66.2952 28.3438C66.622 27.3164 65.8733 26.3503 64.7431 26.3477C61.0426 26.3407 57.3429 26.3407 53.6442 26.3477C53.5726 26.3514 53.5013 26.3592 53.4306 26.3711C53.5257 27.3776 53.6194 28.3607 53.7236 29.4062ZM36.4905 26.3438H32.9345C30.3225 26.3438 27.7106 26.3438 25.0986 26.3438C24.736 26.3356 24.3822 26.4566 24.1006 26.6852C23.819 26.9138 23.6279 27.2351 23.5614 27.5916C23.4948 27.9482 23.5573 28.3168 23.7375 28.6316C23.9177 28.9464 24.204 29.1868 24.5452 29.3099C24.8409 29.3966 25.1486 29.4357 25.4567 29.4258C28.8803 29.4327 32.3039 29.4327 35.7275 29.4258H36.1936C36.2952 28.3659 36.3915 27.3711 36.4905 26.3438ZM47.5895 38.5586L47.4736 38.5052C46.9866 39.0052 46.5048 39.5091 46.0139 40.0052C44.9866 41.0391 44.9345 41.0378 43.8941 39.9948L42.3316 38.4232C42.3316 39.957 42.3316 41.3529 42.3316 42.7474C42.3316 43.1237 42.5686 43.3216 42.9215 43.3255C44.2843 43.3368 45.6476 43.3368 47.0113 43.3255C47.3408 43.3255 47.5856 43.138 47.5882 42.7891C47.6038 41.3776 47.5895 39.9688 47.5895 38.5586Z" fill="#886CFF"/>
<path d="M41.0557 28.7018C41.0629 27.9308 41.2981 27.1792 41.7317 26.5417C42.1653 25.9041 42.7778 25.4091 43.4922 25.119C44.2066 24.8289 44.9908 24.7568 45.7461 24.9116C46.5015 25.0664 47.1941 25.4413 47.7367 25.989C48.2794 26.5367 48.6478 27.2328 48.7956 27.9895C48.9434 28.7462 48.864 29.5298 48.5673 30.2414C48.2706 30.9531 47.7699 31.561 47.1283 31.9887C46.4868 32.4163 45.733 32.6445 44.962 32.6445C44.4465 32.6425 43.9365 32.5388 43.4611 32.3395C42.9857 32.1402 42.5543 31.8491 42.1915 31.483C41.8287 31.1168 41.5417 30.6827 41.3468 30.2055C41.1519 29.7282 41.053 29.2173 41.0557 28.7018ZM47.3995 28.7279C47.3974 28.2453 47.2524 27.7741 46.9827 27.3739C46.713 26.9737 46.3308 26.6624 45.8842 26.4794C45.4377 26.2963 44.947 26.2497 44.474 26.3454C44.001 26.4411 43.5669 26.6748 43.2267 27.017C42.8865 27.3593 42.6553 27.7946 42.5624 28.2682C42.4694 28.7418 42.519 29.2322 42.7046 29.6777C42.8903 30.1231 43.2039 30.5035 43.6056 30.7708C44.0074 31.0382 44.4794 31.1805 44.962 31.1797C45.61 31.1745 46.2298 30.9136 46.6863 30.4536C47.1428 29.9937 47.3991 29.372 47.3995 28.724V28.7279Z" fill="#886CFF"/>
<path d="M49.0576 53.444C49.0576 54.6953 49.0576 55.9479 49.0576 57.1992C49.0498 58.4883 48.2113 59.332 46.9196 59.3411C45.6054 59.3507 44.2911 59.3507 42.9769 59.3411C41.7139 59.3294 40.8675 58.4831 40.8649 57.2252C40.8588 54.6732 40.8588 52.1211 40.8649 49.569C40.8649 48.3971 41.6462 47.5325 42.8063 47.4857C44.2386 47.4375 45.6618 47.4401 47.0889 47.4857C48.2777 47.5208 49.0498 48.3841 49.0563 49.5872C49.0628 50.8763 49.0576 52.1614 49.0576 53.444ZM42.3284 52.5989C42.3284 54.2109 42.3167 55.7825 42.3363 57.3542C42.3363 57.7578 42.6592 57.875 43.0238 57.875C44.305 57.875 45.585 57.875 46.8649 57.875C47.4066 57.875 47.5902 57.6823 47.5941 57.138C47.5941 56.2773 47.5941 55.4167 47.5941 54.556V52.6029L42.3284 52.5989ZM47.5941 51.0846C47.5941 50.5364 47.5941 50.0495 47.5941 49.5638C47.5941 49.164 47.3714 48.9492 46.9925 48.9466C45.6292 48.9349 44.2659 48.9258 42.904 48.9635C42.7113 48.9635 42.3831 49.2239 42.3623 49.3945C42.2933 49.9466 42.3363 50.5117 42.3363 51.0872L47.5941 51.0846Z" fill="#886CFF"/>
<path d="M36.4141 38.8802C36.4141 40.1159 36.4141 41.3542 36.4141 42.586C36.4062 43.9831 35.5911 44.7995 34.2005 44.7995C32.9366 44.7995 31.6714 44.7995 30.4049 44.7995C29.0612 44.7995 28.2161 43.9557 28.2122 42.6068C28.2053 40.1198 28.2053 37.6328 28.2122 35.1459C28.2122 33.7891 29.0326 32.9518 30.3867 32.9323C31.668 32.9167 32.9497 32.9167 34.2318 32.9323C35.6016 32.9466 36.4036 33.7591 36.4128 35.1263C36.4206 36.3724 36.4141 37.6237 36.4141 38.8802ZM29.6784 38.0599C29.6784 39.6654 29.6641 41.2227 29.6875 42.78C29.6875 43.1992 30.0156 43.3321 30.4062 43.3294C31.6732 43.3294 32.9388 43.3294 34.2044 43.3294C34.7747 43.3294 34.9453 43.1498 34.9505 42.5612C34.9505 41.7487 34.9505 40.9349 34.9505 40.1224V38.0599H29.6784ZM34.9362 36.5365C34.9362 35.9623 34.9753 35.4102 34.9141 34.8698C34.8945 34.6966 34.6146 34.4232 34.4479 34.4193C33.0208 34.3854 31.5933 34.3854 30.1654 34.4193C30.0013 34.4193 29.7253 34.7071 29.7057 34.8841C29.6445 35.4219 29.6836 35.9714 29.6836 36.5313L34.9362 36.5365Z" fill="#886CFF"/>
<path d="M53.5037 38.8424C53.5037 37.6081 53.5037 36.3685 53.5037 35.1367C53.5115 33.7396 54.3136 32.9362 55.7172 32.9232C56.9664 32.9127 58.2155 32.9127 59.4646 32.9232C60.8826 32.9336 61.7029 33.7565 61.7055 35.1679C61.7107 37.6376 61.7107 40.1081 61.7055 42.5794C61.7055 43.9544 60.8579 44.7864 59.4803 44.7929C58.2303 44.7929 56.9811 44.7929 55.7329 44.7929C54.3149 44.7929 53.5089 43.9818 53.5037 42.5508C53.4998 41.3138 53.5037 40.0781 53.5037 38.8424ZM60.2459 38.0612H54.9763C54.9763 39.6653 54.9646 41.2383 54.9855 42.8099C54.9855 43.2187 55.3149 43.3307 55.6769 43.3242C56.9594 43.3242 58.242 43.3242 59.5232 43.3242C60.0441 43.3242 60.2381 43.1198 60.2446 42.5703C60.2524 41.9518 60.2446 41.3346 60.2446 40.7161L60.2459 38.0612ZM60.2342 36.5364C60.2342 35.9739 60.2563 35.4414 60.225 34.9114C60.2055 34.5703 59.9555 34.3906 59.6235 34.3906C58.2771 34.3828 56.9295 34.3711 55.587 34.4049C55.3865 34.4049 55.0415 34.6445 55.0219 34.8034C54.9529 35.3711 54.9946 35.9518 54.9946 36.5338L60.2342 36.5364Z" fill="#886CFF"/>
<path d="M36.4144 53.4492C36.4144 54.6849 36.4144 55.9232 36.4144 57.1562C36.404 58.5195 35.5837 59.3359 34.2256 59.3424C32.9443 59.3476 31.6627 59.3476 30.3805 59.3424C29.0667 59.3359 28.2191 58.4909 28.2139 57.1719C28.2061 54.6693 28.2061 52.1662 28.2139 49.6627C28.2139 48.3346 29.0446 47.4935 30.3649 47.4791C31.667 47.4644 32.9652 47.4644 34.2594 47.4791C35.5954 47.4935 36.404 48.3086 36.4144 49.6484C36.4222 50.914 36.4144 52.1823 36.4144 53.4492ZM29.7282 52.6068C29.7048 52.6591 29.6882 52.7143 29.6787 52.7708C29.6787 54.2513 29.6657 55.7318 29.6787 57.2122C29.6787 57.6927 29.9053 57.875 30.4404 57.8763C31.6904 57.8815 32.9404 57.8815 34.1904 57.8763C34.7699 57.8763 34.9495 57.6992 34.9521 57.1211C34.9521 55.7396 34.9521 54.3554 34.9521 52.9726C34.9455 52.85 34.9316 52.7278 34.9105 52.6068H29.7282ZM34.9469 51.0846C34.9469 50.5234 34.9469 50.0221 34.9469 49.5221C34.9469 49.1432 34.7113 48.9505 34.3571 48.9479C32.9951 48.9375 31.6318 48.9245 30.2712 48.9661C30.0719 48.9661 29.7399 49.25 29.7126 49.4375C29.6357 49.97 29.6852 50.5221 29.6852 51.0859L34.9469 51.0846Z" fill="#886CFF"/>
<path d="M53.5039 53.4154C53.5039 52.1641 53.4974 50.9115 53.5039 49.6602C53.513 48.2943 54.3229 47.4857 55.6927 47.4766C56.9739 47.4661 58.2556 47.4661 59.5377 47.4766C60.8606 47.4896 61.6992 48.3268 61.7031 49.6471C61.7118 52.1497 61.7118 54.6528 61.7031 57.1562C61.7031 58.5 60.8515 59.3372 59.5026 59.3424C58.2369 59.3477 56.9713 59.3477 55.7057 59.3424C54.3203 59.3424 53.5104 58.5221 53.5026 57.1211C53.4987 55.8854 53.5039 54.651 53.5039 53.4154ZM60.2461 52.6081H54.9765C54.9765 54.2135 54.9648 55.7878 54.9843 57.3607C54.9843 57.7708 55.3151 57.8815 55.6757 57.8815C56.9596 57.8815 58.2421 57.8815 59.5247 57.8815C60.0338 57.8815 60.2343 57.6771 60.2435 57.1719C60.2539 56.5378 60.2435 55.9036 60.2435 55.2695L60.2461 52.6081ZM54.9778 51.0612H60.2448C60.2448 50.5273 60.2539 50.0404 60.2448 49.5534C60.2356 49.1927 60.0377 48.9544 59.6757 48.9505C58.2981 48.9358 56.9201 48.9358 55.5416 48.9505C55.2369 48.9505 54.9974 49.1146 54.9869 49.4492C54.9635 49.9805 54.9778 50.5143 54.9778 51.0612Z" fill="#886CFF"/>
</g>
<defs>
<clipPath id="clip0_392_1638">
<rect width="49.9102" height="50" fill="white" transform="translate(20 20)"/>
</clipPath>
</defs>
</svg>
