<svg width="70" height="70" viewBox="0 0 70 70" fill="none" xmlns="http://www.w3.org/2000/svg">
<circle cx="35" cy="35" r="35" fill="#886CFF"/>
<g clip-path="url(#clip0_387_2086)">
<path d="M50 38.75C49.8883 39.1008 49.8188 39.4727 49.6562 39.7977C49.0539 41.0016 48.0617 41.6523 46.718 41.6727C45.0516 41.7024 43.3852 41.6805 41.718 41.6813H41.343C41.4039 41.7977 41.4461 41.8867 41.4992 41.9727C42.3109 43.3836 43.1328 44.7852 43.932 46.2078C44.5906 47.3758 44 48.7586 42.725 49.082C41.8828 49.2953 41.0328 48.9258 40.5656 48.1219C39.7062 46.6469 38.8602 45.1664 38.0078 43.6883C37.6625 43.0883 37.3109 42.4922 36.9742 41.8867C36.9428 41.8174 36.8903 41.7599 36.8242 41.7223C36.7581 41.6846 36.6818 41.6689 36.6063 41.6773C35.5536 41.6852 34.501 41.6852 33.4484 41.6773C33.2648 41.6773 33.1727 41.7438 33.0867 41.8969C32.7195 42.5516 32.3398 43.1992 31.9648 43.85C31.9305 43.9094 31.8984 43.9703 31.8617 44.0273C31.7055 44.2734 31.4586 44.3524 31.2406 44.2289C31.0227 44.1055 30.9594 43.8508 31.1031 43.593C31.4039 43.0578 31.7148 42.5273 32.0203 41.9945C32.0711 41.9047 32.1172 41.8117 32.1844 41.682C31.3852 41.682 30.6281 41.6781 29.8719 41.6891C29.8274 41.6984 29.7854 41.7172 29.7487 41.7442C29.7121 41.7711 29.6816 41.8056 29.6594 41.8453C28.7297 43.4474 27.8047 45.0523 26.8844 46.6602C26.8123 46.7796 26.7647 46.9122 26.7443 47.0502C26.7238 47.1882 26.7309 47.3289 26.7652 47.4641C26.7995 47.5993 26.8603 47.7264 26.9441 47.838C27.0278 47.9495 27.1329 48.0434 27.2531 48.1141C27.7664 48.418 28.4 48.2555 28.7203 47.7148C29.182 46.9336 29.6281 46.1445 30.0812 45.3594C30.1195 45.2922 30.1594 45.2219 30.2008 45.1586C30.3461 44.95 30.5828 44.8844 30.7867 44.9922C30.8374 45.0177 30.8823 45.0533 30.9188 45.0967C30.9553 45.1401 30.9826 45.1905 30.999 45.2448C31.0154 45.299 31.0207 45.3561 31.0144 45.4125C31.0081 45.4688 30.9905 45.5233 30.9625 45.5727C30.4211 46.5203 29.907 47.4875 29.3023 48.3938C28.75 49.2188 27.5781 49.3703 26.7375 48.8281C26.3218 48.5613 26.0245 48.145 25.9069 47.6652C25.7893 47.1855 25.8604 46.6789 26.1055 46.25C26.7633 45.0781 27.4461 43.9172 28.118 42.7516C28.3125 42.4149 28.5086 42.0766 28.7289 41.6844H28.3859C26.7677 41.6844 25.15 41.6844 23.5328 41.6844C21.4844 41.6813 20.0594 40.2523 20.0586 38.2031C20.0586 33.5651 20.0586 28.9271 20.0586 24.2891C20.0586 22.5609 21.1664 21.2094 22.8266 20.9094C23.0673 20.8711 23.311 20.8544 23.5547 20.8594C31.2047 20.8594 38.8549 20.8594 46.5055 20.8594C48.3328 20.8594 49.5828 21.8852 49.9555 23.6773C49.9664 23.7038 49.9814 23.7283 50 23.75V24.7461C49.9906 24.7461 49.9766 24.7461 49.9727 24.7547C49.832 24.9617 49.6445 25.0672 49.3992 24.9734C49.1539 24.8797 49.1117 24.6563 49.1219 24.4164C49.157 23.6117 48.9125 22.9156 48.3086 22.3672C47.9058 21.991 47.3819 21.771 46.8312 21.7469C46.7437 21.743 46.6555 21.7391 46.568 21.7391C38.8789 21.7391 31.1898 21.7391 23.5008 21.7391C22.4219 21.7391 21.6195 22.2016 21.1664 23.1852C21.0232 23.5048 20.9479 23.8506 20.9453 24.2008C20.9313 28.9175 20.9289 33.6336 20.9383 38.3492C20.9383 39.7508 22.0203 40.8016 23.4492 40.8039C27.2305 40.8096 31.0117 40.8096 34.793 40.8039C38.7206 40.8039 42.6479 40.8039 46.575 40.8039C47.9031 40.8039 48.8805 39.9844 49.093 38.7024C49.1175 38.5188 49.1271 38.3336 49.1219 38.1484C49.1219 34.262 49.1219 30.3758 49.1219 26.4898C49.1219 26.0523 49.35 25.8125 49.6797 25.9211C49.7984 25.9602 49.893 26.0734 49.9984 26.1555L50 38.75ZM37.8906 41.6852C37.9051 41.7316 37.9225 41.777 37.943 41.8211C39.0805 43.7977 40.2141 45.7758 41.3609 47.7469C41.5022 47.9891 41.734 48.1653 42.0052 48.2366C42.2764 48.308 42.5648 48.2687 42.807 48.1273C43.0492 47.986 43.2254 47.7543 43.2968 47.4831C43.3681 47.2119 43.3288 46.9235 43.1875 46.6813C42.268 45.0625 41.3344 43.4524 40.4016 41.8414C40.3633 41.7758 40.2789 41.693 40.2148 41.6922C39.4531 41.6813 38.6844 41.6852 37.8906 41.6852Z" fill="white"/>
<path d="M30.2389 31.6086H36.4405C36.9537 31.6086 37.0834 31.739 37.0772 32.2453C37.0311 35.7367 34.2967 38.8203 30.8334 39.2875C26.8772 39.8195 23.3264 37.2562 22.5912 33.3297C21.8592 29.4234 24.5702 25.5226 28.4881 24.8609C28.8822 24.7998 29.2795 24.7617 29.678 24.7468C30.0912 24.7273 30.2381 24.8843 30.2381 25.3031C30.2381 27.3036 30.2381 29.3044 30.2381 31.3054L30.2389 31.6086ZM36.1717 32.5C36.0936 32.4953 36.035 32.4898 35.978 32.4898C34.0483 32.4898 32.1186 32.4898 30.1889 32.4968C30.0491 32.5088 29.918 32.5697 29.8186 32.6687C28.4634 34.0146 27.1123 35.3659 25.7655 36.7226C25.7061 36.782 25.6553 36.8484 25.6014 36.9101C27.242 38.4172 29.8897 38.9672 32.2069 38.0109C34.8287 36.9297 36.0936 34.4773 36.1717 32.5ZM25.9655 26.8953C22.8623 29.1922 22.5506 33.614 24.9319 36.2445L29.2186 31.9531C28.1483 30.2864 27.0639 28.6005 25.9655 26.8953ZM26.7077 26.4265L29.3397 30.5172V25.6422C28.4928 25.6711 27.4014 25.9937 26.7077 26.4258V26.4265Z" fill="white"/>
<path d="M31.2217 26.7524C31.2217 25.6493 31.2217 24.5464 31.2217 23.4438C31.2217 23.0282 31.3779 22.8774 31.7842 22.8813C35.424 22.9133 38.6084 25.8813 38.8936 29.5102C38.9084 29.7047 38.9295 29.9008 38.9318 30.0946C38.9365 30.4649 38.7756 30.6329 38.4021 30.636C37.6717 30.643 36.9404 30.636 36.21 30.636C34.7584 30.636 33.3071 30.636 31.8561 30.636C31.3365 30.636 31.2178 30.5157 31.2178 30C31.2199 28.9183 31.2212 27.8357 31.2217 26.7524ZM32.1131 29.7415H38.0014C37.9537 26.6946 35.1271 23.8704 32.1131 23.8196V29.7415Z" fill="white"/>
<path d="M47.8407 29.1876C47.8407 29.3727 47.8446 29.5586 47.8407 29.7438C47.8411 29.8952 47.8117 30.0452 47.754 30.1853C47.6964 30.3253 47.6117 30.4526 47.5048 30.5598C47.3979 30.6671 47.2709 30.7522 47.1311 30.8103C46.9913 30.8684 46.8414 30.8984 46.6899 30.8985C46.3196 30.9063 45.9493 30.9047 45.5798 30.8985C45.2734 30.9041 44.9772 30.7881 44.7562 30.5757C44.5352 30.3634 44.4074 30.0721 44.4009 29.7657C44.3829 29.3751 44.3837 28.9844 44.4009 28.5938C44.4062 28.2871 44.5322 27.9949 44.7516 27.7805C44.971 27.5661 45.266 27.4468 45.5728 27.4485C45.9431 27.4391 46.3134 27.4383 46.6829 27.4485C47.3532 27.468 47.829 27.9571 47.8423 28.629C47.8439 28.8165 47.8407 29.0024 47.8407 29.1876ZM46.9642 29.1743C46.9642 29.018 46.9595 28.8618 46.9642 28.7055C46.9728 28.4501 46.8532 28.3251 46.5993 28.3258C46.278 28.3258 45.9574 28.3258 45.6376 28.3258C45.3985 28.3258 45.2751 28.4438 45.2735 28.6821C45.2735 29.0126 45.2696 29.3438 45.2735 29.6751C45.2735 29.8946 45.3829 30.0204 45.6134 30.0196H46.6337C46.8462 30.0196 46.9587 29.9126 46.961 29.6977C46.9649 29.5243 46.9634 29.3493 46.9642 29.1743Z" fill="white"/>
<path d="M47.8406 33.2274C47.8406 33.4031 47.8406 33.5781 47.8406 33.7539C47.8297 34.4461 47.3508 34.9336 46.6687 34.9446C46.3089 34.9503 45.9484 34.9503 45.5875 34.9446C44.9273 34.9352 44.4367 34.4758 44.4039 33.8196C44.3836 33.4201 44.3836 33.0198 44.4039 32.6203C44.4138 32.319 44.5406 32.0333 44.7575 31.8238C44.9743 31.6143 45.2641 31.4973 45.5656 31.4977C45.9258 31.4867 46.2859 31.4899 46.6461 31.4977C47.3492 31.511 47.8313 31.9977 47.8422 32.7024C47.843 32.8758 47.8406 33.0516 47.8406 33.2274ZM46.9641 33.2578C46.9641 33.0828 46.9641 32.9071 46.9641 32.7321C46.9688 32.4867 46.8437 32.375 46.6078 32.3742C46.2773 32.3742 45.9469 32.3742 45.6172 32.3742C45.3922 32.3742 45.2766 32.4985 45.2742 32.7211C45.2742 33.061 45.2688 33.4024 45.2742 33.7422C45.2789 33.9485 45.3891 34.0656 45.6047 34.0656C45.7891 34.0656 45.9734 34.0656 46.1578 34.0656C47.0125 34.075 46.9711 34.1117 46.9641 33.2578Z" fill="white"/>
<path d="M46.1009 38.9906C45.9251 38.9906 45.7501 38.9906 45.5751 38.9906C44.9157 38.9757 44.4313 38.5164 44.4032 37.8554C44.386 37.4648 44.3868 37.0742 44.4032 36.6835C44.429 36.082 44.836 35.6171 45.4321 35.5609C45.8877 35.5191 46.3461 35.5191 46.8017 35.5609C47.4267 35.6171 47.8314 36.0992 47.8415 36.7328C47.8472 37.0937 47.8472 37.4546 47.8415 37.8156C47.8306 38.5046 47.3493 38.982 46.6571 38.9953C46.4704 38.9945 46.2853 38.9914 46.1009 38.9906ZM46.122 38.1125C46.2782 38.1125 46.4345 38.1085 46.5907 38.1125C46.8431 38.121 46.9728 38.0125 46.9681 37.7507C46.9634 37.4296 46.9626 37.1085 46.9681 36.7875C46.9735 36.525 46.8368 36.4171 46.5915 36.4164C46.279 36.4164 45.9665 36.4164 45.6595 36.4164C45.4118 36.4164 45.2767 36.5296 45.2767 36.7859C45.2767 37.107 45.2767 37.4281 45.2767 37.7492C45.2767 38.0039 45.404 38.1226 45.6587 38.1132C45.811 38.1078 45.9665 38.1125 46.122 38.1125Z" fill="white"/>
<path d="M47.8409 25.1437C47.8409 25.3289 47.8448 25.5148 47.8409 25.7C47.8407 26.0058 47.7192 26.2991 47.503 26.5154C47.2868 26.7317 46.9936 26.8535 46.6878 26.8539C46.3175 26.8617 45.9472 26.8601 45.5776 26.8539C45.2713 26.8583 44.9758 26.7413 44.7554 26.5284C44.5351 26.3156 44.408 26.0242 44.4019 25.7179C44.3839 25.3273 44.3847 24.9367 44.4019 24.5461C44.4078 24.2398 44.5341 23.9482 44.7534 23.7343C44.9727 23.5204 45.2674 23.4014 45.5737 23.4031C45.944 23.3945 46.3144 23.3937 46.6839 23.4031C47.3526 23.4211 47.8276 23.9117 47.8409 24.5851C47.844 24.7726 47.8409 24.9586 47.8409 25.1437ZM46.9644 25.1281C46.9644 24.9719 46.9597 24.8156 46.9644 24.6594C46.973 24.4039 46.855 24.2789 46.5995 24.2804C46.2782 24.2804 45.9576 24.2804 45.6378 24.2804C45.3987 24.2804 45.2761 24.3976 45.2737 24.6359C45.2737 24.9664 45.2698 25.2976 45.2737 25.6289C45.2737 25.8476 45.3831 25.975 45.6136 25.975C45.9534 25.975 46.294 25.975 46.6339 25.975C46.8448 25.975 46.9589 25.8672 46.9612 25.6523C46.9651 25.4781 46.9636 25.3031 46.9644 25.1281Z" fill="white"/>
<path d="M40.9164 37.7055C40.1758 37.7055 39.432 37.7055 38.6945 37.7055C38.3336 37.7055 38.125 37.5359 38.132 37.2594C38.139 36.9828 38.3398 36.8281 38.6844 36.8281C40.1854 36.8281 41.6862 36.8281 43.1867 36.8281C43.5773 36.8281 43.8078 37.1031 43.6883 37.4211C43.6031 37.6484 43.4203 37.707 43.1969 37.7063C42.4367 37.7039 41.6765 37.7055 40.9164 37.7055Z" fill="white"/>
<path d="M41.7693 29.6141C41.2935 29.6141 40.8178 29.6141 40.3412 29.6141C40.0014 29.6141 39.8115 29.4453 39.8185 29.1656C39.8248 28.9008 40.0123 28.7383 40.3357 28.7375C41.2873 28.7333 42.2394 28.7333 43.192 28.7375C43.5225 28.7375 43.7279 28.9219 43.7193 29.1906C43.7107 29.4594 43.5193 29.6117 43.1975 29.6141C42.7217 29.6164 42.2459 29.6141 41.7693 29.6141Z" fill="white"/>
<path d="M42.2209 25.568C41.8912 25.568 41.5607 25.5727 41.2303 25.568C40.9334 25.5625 40.7537 25.393 40.7529 25.1336C40.7522 24.8742 40.9287 24.6961 41.2264 24.693C41.8956 24.6857 42.5657 24.6857 43.2365 24.693C43.5271 24.693 43.7201 24.8805 43.7217 25.1297C43.7232 25.3789 43.5311 25.5617 43.2412 25.5672C42.9014 25.5727 42.5607 25.568 42.2209 25.568Z" fill="white"/>
<path d="M42.4737 33.6594C42.2112 33.6594 41.9494 33.6648 41.6869 33.6594C41.401 33.6516 41.2307 33.4945 41.2182 33.2453C41.208 32.9828 41.3807 32.7922 41.6721 32.7867C42.1963 32.7758 42.7205 32.7766 43.2448 32.7867C43.5323 32.7914 43.7237 32.9852 43.7182 33.2344C43.7127 33.4836 43.526 33.6539 43.2284 33.6602C42.9784 33.6633 42.726 33.6594 42.4737 33.6594Z" fill="white"/>
</g>
<defs>
<clipPath id="clip0_387_2086">
<rect width="30" height="30" fill="white" transform="translate(20 20)"/>
</clipPath>
</defs>
</svg>
